<svg xmlns="http://www.w3.org/2000/svg" viewBox="0 0 200 40" fill="none">
  <path d="M22.95 27.27H19.53V15.03H12.69V12.15H29.88V15.03H22.95V27.27Z" fill="#38220F"/>
  <path d="M43.74 27.54C41.34 27.54 39.36 26.73 37.8 25.11C36.24 23.49 35.46 21.33 35.46 18.63C35.46 15.93 36.24 13.77 37.8 12.15C39.36 10.53 41.34 9.72 43.74 9.72C46.14 9.72 48.12 10.53 49.68 12.15C51.24 13.77 52.02 15.93 52.02 18.63C52.02 21.33 51.24 23.49 49.68 25.11C48.12 26.73 46.14 27.54 43.74 27.54ZM43.74 24.66C45.24 24.66 46.41 24.12 47.25 23.04C48.09 21.96 48.51 20.46 48.51 18.54C48.51 16.62 48.09 15.12 47.25 14.04C46.41 12.96 45.24 12.42 43.74 12.42C42.24 12.42 41.07 12.96 40.23 14.04C39.39 15.12 38.97 16.62 38.97 18.54C38.97 20.46 39.39 21.96 40.23 23.04C41.07 24.12 42.24 24.66 43.74 24.66Z" fill="#38220F"/>
  <text x="60" y="27" font-family="'Outfit', sans-serif" font-weight="700" font-size="20" letter-spacing="1" fill="#38220F">BEANCRAFT</text>
  <circle cx="155" cy="19" r="3" fill="#C06C47" />
</svg>
